<mxfile host="app.diagrams.net" modified="2022-11-25T14:32:39.808Z" agent="5.0 (X11; Linux x86_64) AppleWebKit/537.36 (KHTML, like Gecko) Chrome/106.0.0.0 Safari/537.36" etag="ggF2iP4zpQmyGBczN80J" version="20.6.0" type="github">
  <diagram id="UWiF1ZCGLhWLdl46US58" name="Page-1">
    <mxGraphModel dx="1422" dy="704" grid="1" gridSize="10" guides="1" tooltips="1" connect="1" arrows="1" fold="1" page="1" pageScale="1" pageWidth="850" pageHeight="1100" math="0" shadow="0">
      <root>
        <mxCell id="0" />
        <mxCell id="1" parent="0" />
        <mxCell id="bFQN5zdLc18UQa3FLDDS-1" value="" style="rounded=1;whiteSpace=wrap;html=1;fillColor=#000000;strokeWidth=6;" parent="1" vertex="1">
          <mxGeometry x="44.52" y="115" width="475.48" height="325" as="geometry" />
        </mxCell>
        <mxCell id="bFQN5zdLc18UQa3FLDDS-5" value="" style="rounded=1;whiteSpace=wrap;html=1;fillColor=default;aspect=fixed;strokeWidth=6;" parent="1" vertex="1">
          <mxGeometry x="44.519999999999996" y="115" width="290" height="290" as="geometry" />
        </mxCell>
        <mxCell id="bFQN5zdLc18UQa3FLDDS-6" value="&lt;font style=&quot;font-size: 25px;&quot; color=&quot;#ffffff&quot;&gt;to see our GitHub repository&lt;/font&gt;" style="text;html=1;resizable=0;autosize=1;align=center;verticalAlign=middle;points=[];fillColor=none;strokeColor=none;rounded=0;strokeWidth=6;" parent="1" vertex="1">
          <mxGeometry x="112.26" y="400" width="340" height="40" as="geometry" />
        </mxCell>
        <mxCell id="bFQN5zdLc18UQa3FLDDS-7" value="&lt;b&gt;&lt;font style=&quot;font-size: 60px;&quot;&gt;SCAN&lt;/font&gt;&lt;/b&gt;" style="text;html=1;resizable=0;autosize=1;align=center;verticalAlign=middle;points=[];fillColor=none;strokeColor=none;rounded=0;strokeWidth=6;fontSize=23;fontColor=#FFFFFF;" parent="1" vertex="1">
          <mxGeometry x="330" y="180" width="190" height="90" as="geometry" />
        </mxCell>
        <mxCell id="bFQN5zdLc18UQa3FLDDS-8" value="&lt;b&gt;&lt;font style=&quot;font-size: 110px;&quot;&gt;ME&lt;/font&gt;&lt;/b&gt;" style="text;html=1;resizable=0;autosize=1;align=center;verticalAlign=middle;points=[];fillColor=none;strokeColor=none;rounded=0;strokeWidth=6;fontSize=23;fontColor=#FFFFFF;" parent="1" vertex="1">
          <mxGeometry x="330" y="220" width="190" height="150" as="geometry" />
        </mxCell>
        <mxCell id="a-fDMv8MhKj40T-3jmok-3" value="" style="shape=image;verticalLabelPosition=bottom;labelBackgroundColor=default;verticalAlign=top;aspect=fixed;imageAspect=0;image=data:image/png,iVBORw0KGgoAAAANSUhEUgAAASwAAAEsCAYAAAB5fY51AAAABGdBTUEAALGPC/xhBQAAACBjSFJNAAB6JgAAgIQAAPoAAACA6AAAdTAAAOpgAAA6mAAAF3CculE8AAAABmJLR0QAAAAAAAD5Q7t/AAAACXBIWXMAAABgAAAAYADwa0LPAAAbWUlEQVR42u2dTY7dxrKESw931H0HEgTIXpHgkdTeheAFGVqFLHgkCF6PJQM90EDSlG9g0PDr16d4GMzIiizGB3BydcmT9XPytCuCmU+WZVmaMcYU4H9GB2CMMdfihGWMKYMTljGmDE5YxpgyOGEZY8rghGWMKYMTljGmDE5YxpgyOGEZY8rghGWMKYMTljGmDE5YxpgyOGEZY8rghGWMKYMTljGmDE5YxpgyOGEZY8rghGWMKYMTljGmDE5YxpgyOGEZY8rghGWMKYMTljGmDE5YxpgyOGEZY8rghGWMKYMTljGmDE5YxpgyOGEZY8rghGWMKYMTljGmDE5YxpgyOGEZY8ogk7CePXvWnjx5UvpC+fTpU3v9+nW7vb1tT548abe3t+3nn39uf/311+hl6cbZu9hjYMTCWIcz72sKiwhPnz5dWmulL5RXr149+ry7u7vRy3JVnL2LNQZGLIx1OPO+ZvBkWZZldNJs7e9foi9fvowO4xDoVN7e3rbv37//v//95uamffv2bfSwNuPswRoDIxbGOpx5XzNwwgoEncren90iy7MZZw/GGBixMNbhzPuagcwZ1llR+gtqi5ubm5R7mPTm+1KsamM4M05Yg/nw4cPoEK7m5cuXu+/56aefRof9f/j48ePu8amN4dSMPkRbOdvh5NevX5d3794tL168KHPg+fnz5+Xu7m65ubnZnIubm5vl7u5u+fz5MyUWdI1evHixvHv3bvn69evm+CLGcLZ9zUYmmt7C3t/fjw7vqjh7/Pnnn8urV6+u+rIznslOIHvijIgl6st4bSzoGGbf19nIRDP7wiIyPOOZI6wSDLtA9F8RLMvD7Ps6mxIq4f39fXv+/PnoEDfj7E0lIsMznjnCKsGwC0QbGlmWh9n3dTY+dE8CSVaMZzLiQD9zRCx7Y6w0hjPghJUEKo1f+vVG/zIZIdFH2wUYfyFuxWLLgwZOWEkgloDWLsvwqB1ihEQfbRdgWEG2YrHlQYTRh2grsx9O7rEE/Pt6KMNfa4d4eI1UCaPsAujYI+YFHcPs+zobmWjQhY3auNcuUNTCMr58/75+/PHH5f3794/6jXqg8n3UfewLnReUs+1rNjLRnHVh3717RxnD+/fvoXhQ+T76PtaFzgvKWfc1i/K2Bka9nt6URMu/3759a//973/Dx/D169d2e3u7+z5Uvo++jwU6Lyhn3dcsfOg+GNaXB30uKt9H38ciM1mZeJywBqNWrYEh30dbM46gNt9mH05Yg1Gr1sCQ76OtGUfoVWswBRh9iLZytsNJtkqIgsr3vViirBkRV69aA4Oz7Ws2MtHMvrCofP9QhlctS8NYB3Tsey62P232fZ2NTDSzLywq31+S4bfsENkw1gEdO3KxqljMvq+zsa3hERaC/IvK95dk+C07RPayMtYBHTsCq4rF7Ps6Gx+6J4HK95dk+DPI85ljd9WFGjhhJcFo4KBUQYDxmUjDCKX4TTxOWEkwGjgoVRBAq1H0QBpGoLjqQhFGH6KtzH44yWjgwGiagIJWo+hdexpGoJdVwu04lZCJxgv7OMpVELLLxPQ+79pn9qo1MJpleF/HIhONF/ZxKlRBQC0BqD2h93lbz+xVa2A0y/C+jsW2hkdYhOTfClUQUEsAak/ofd7WM3vVGhjNMryvY/GhuzgVqiBEWzaOfN7WM3v/7kYT+jhhTUq2TJ/ZFINROaL3XFsedHDCmhSGzaAHWgWBYfdA41SyiZgLjD5EW/Hh5P7x9WDYDHoXWgWBYfdA42TYRLyvY5GJZvbuIqhkjm7Ah4ws6YImHhRGLOj6zb6vs5GJZvaFRSXzqIS1wmp6gVysCgmMWND1m31fZ1Pe1qAU5wJUa9iSzHvyNrJ0rKYXCKwKCYglgNVkY/Z9nY0P3ZNQkcyVqjwo2QVYTTZMLE5YJ0RFpmfFoTI+E48T1gnJtjxcgmUXUBmfiec/owMw+bx9+7a19rcnacR/0tzc3LSXL1+2X3/9dcrxGSKjT/1XeipFlatH9n17ZHi00sHICgmM8THWYfZ9nY1MNLMvbPZ9iAyPVjoYUSGBMT7GOsy+r7MpYWuoQm8qUXsCeh8iw6OVDkZUSGCMj7EOs+/rbJywAlFKWL5P477Z93U2VgmTQCsBMCoIMCoWZMZ5xGyqND6zHyesJNBKAIwKAoyKBZlxfvjwAX6m0vgMwOhDtJXZDyfRSgDofb04GRULMuKMUPuyxzf7vs5G5gzLxLLnfbrVF/X27dv2ww8/XPz/ffr0qb1586b98ccf7fv371ffFxXntXhLz4sT1qQgieDu7q799ttvF//99evX7ffff999X3ScW3hLz4sT1qQoVSyIjnMLb+l5ccKaFDQRLARpnxEnOgZTG6uE5h96Ej2jbtXWZ6KwYjXjccIy/9CT6I9YCXowKiugDTGMPq7WYLrVE759+9Y+fvzYfvnlF8pnMyorvHnzprX2dzJUKlhoAhjtq1h5+PZ99oVWCVCNs/eMPdUTrr0yYDTSiGiIkVFxYuR9SsgkrEtv32dfaJUAtTh79yLVExQS1gqjkcaRhhiZFSdG3KeEjEp4STLPBpX21eLsqW9I9YQtMrcRo5HGEWtGZsWJEfcpIZOwGPI2ygJK+1XiZIwvexsp2SGqVI5g2FKysUr4APSt/SpxssaX+QvN+Kwj64rMNWu+GJU4lHDCegD61n6VOFnjy7QSMCwWR6ouIHPNsokwKnFIMfoQbaUNPsRG39qvEid7fL0KEFGoqoR75ppdX55RiUOJ0yasnrQfRcQXLCNOxhgYdoEq6x4xhh7Z66DEaRNWT9qP5ogMnxknYwwMu0CVdT8yhh7Z66DEaVXCnrQfzREZPjNOxhgYdoEjZM8nwybCqMRRhdMmrOxhV7ELKI1BybqAkl01Q2nsDE6pElaScZVA5k1prkfEEm0TQf9KUlqHI5wyYZWScYVALA9Kcz0ilmibCGqHUFqHQ4w+RFtpCQftIxUTNGYl9lgeIuZ6hnWPsomMVGuVkPlG9Cb9oRR97eIxJGz0jXdGwtojmY/cuNlzhq57xnwyvGTXjt3VGiIDAaToLamdIWGjb7wzEhYimY+Qt7PnDF33zPlkVJzYGrurNQSCVBfYktoZEjb6xjtD2UEk8xHydvacoeueOZ+MihNbY3e1hshAiryBrlQFoYq8rTRnaJxKn4fG4moNSSi9ga5SBaGSvJ09Z1WIHt+R6hBV/sIqkbCU3kBXqYJQSd7OnrMqRI/vSHWIMo07Rh+irbQdEu+/yX4DfXQVhIrydvacoez5jIjPi6r8EVEdIqPaRgQlEhbjy8eQePc8c6S8zZiXjPsiSrP0YCSsbCtBVIULVctDyYS1XiMaB0Q/c4S8zZiXzPu25gyFkbCyrQTRFS7ULA8lVMJLjGgcEP3MEfI2Y14y79uaM3RLZ1pPWFaC6AoXapaH0gmrNc7mzH6mUlWCKo0RstevR3acjDGg48umhEp4CbWGCUrNCDLHUOnzkFjQe9TWFkHNWlI6YaESPasBgFIzgswxVPo8JJYeldYWQa7Kw+hDtJWWoGCwVSZGMwL0yhjDteun9Hl7YkH3IHufofOS8R1jUyJhZbx9f+1GipLvr73QShVK66f0eRl2FvaPCjovjO9YNiUSVubb91sbKVq+37rQShVK66f0eZl2lkoJS6XZyRYlVMLMt+9baxSZGo0FrVSRvaxKahhj/Xow9hljXnqoNDvZHF+FhIWGqCRTK8XCoErCqrLPGPOSHQsDGZVQSd5Wqg6hFEuPCnaIbDtLNpUqeKDIJCwleVupOoRSLD0q2CGy7SzZVKrgATP6EG2FUXWhgQeQjOoQSrFUWb+oz8u2s1x7RVGxggeKTMKiDA5MEoyFzY4l6q199rwwGj+MtrOwE2SURaYiTlg7riPSd3Ys0W/ts+aF0fhBxc7Csp5EW2QqIaMSMoh+EfSI9J0dS/Rb+6x5YTR+ULGzsKwn0RaZSjhh7QSdLqWGAwyy54UxdvSZjPt6zG5d6CGjEkbDkLCPyL+ZDQcYn7dFpqSuViEh03pyButCj2kTFkPCPiL/ZjYcYHzeFmgTgxkqJGRaT05hXegx+hAtGkYVhAg1LKPhAOPzrr3QJgbZFRJ6Vw907FF2jzNZF7rrMDqAa2BI9BkVIJQ2C7ucTfbYGXuiR/bYGdaF7IYYDEokLIZEn1kBQqmQP6vpRfbYGXuiR/bYGdaF7IYYDEqohAyJPrMChFIhf1bTi+yxM/bEEqw8jqgA0dvX2Q0xGJRIWDPYE5SmuYrlIXsM0QnryNiVrBlKlFAJsy0BmbFkk/1LypivEZaVaPsF494jdo8qf2GVSFjZloDMWLLJlv0ZcvoIy0q0/WKLbLsHaktJZ/Qh2jVkWwIYsYxmBpVwpGUlyn5xLdl2D9SWks34bxLAtYuQIfFGvJmv1BgBbXrBmGslO0vUOlSxe6haHkomrJUtiT5T4j3yZr5SYwS06QVjrpXsLNHrUMXuoWZ5KKESXmJLos+UeI+8ma/UGAFtesGYayU7C0q2lSB6ztQsD6UTVmt13qJXiqUHI87sxh3o+BgoNedAUUoRJVTCHjM0YlAZg1oVBCU7S/RnZjfnUHneUconrBkaMaiMQa0KgpKdJXoM2c05UOSqPIw+RDsKoylEdiyjG3Cw65Oj9ynZWVBGN+eoOGc9SiQshjSMfolGy9QRCXmPBeHaizHXD1Gys4xcW0ZDjCoNKkokLIY0jH6JVGTqrc/rjQ+xICgkrBUlO8sRou0eRxpiVGlQUUIlZEjDqHqjIlNvfV5vfIgFYYslUQVVsrMcIdrucaQhRpUGFSUS1uwWBKU4lewQSvPCQGltC6SB1loBlVDtLXMVmZpllWA0R8huxND7K0OFI/u6un3mCPIJS+0tcxWZmmWVQGVxpUYMl2IZYc2IHkNr9e0zhxh9iHYJ9lvmDTwIHi1Ts60SqCyu1IjhYSzs1vEZYxi5J5SQSVjZb5mP3ri9sSttpJHdWhjVGtB1z44FnU/lvRSBTMLKfstcKWEpSe2XQJtXjKg4wUhY2bGg81lhLx1BRiXMfstcSTFRktovgTavGFFxAmUB7CzZMCwPlZBJWEpNBbKnRCkWNM4e6BiUmmVkx8KIU2kvociohNlvmc8g8WaT3YjBPE6mhUQNmYSV/Zb5FBJvMtmNGMzjZFpI5Bh9iLaS/Za5ksTbG48S2Y0YjuwD5FKKpXdlWEhU0fpGFGCPvM22WDBiyZgzRsWJiI46aCzZcTLWtoodwglrJ4i8zbJYMGLJnDNGxQnUfsFKWIw4GWtbxQ4hoxJWAZG3WRYLRiwMMitOoPaL1hpFJWTEeQmGhUTNDuGEtROlagbZNgMUpaoE6LwoPRP9vB5V7BAyKmEVsqX96MoDszRiyJ4XxrrP3jCCgRPWTrKl/ejKA7M0YsieF8a6T98wgsHoQ7RqMKT93jPQygNoLBlzVnFeGOuu1DCi93wlZKJhSPRVZP8jm/XShTYVyGiMUHFeUMrYBZyw9sGQ6KvI/owvJtpUILMxQqV5QaliF6iSsGRUQoZEX0X2Z6hFaFOBzMYIleYFpYxdoIhKKJOwlGTj7CmZQd7ObjSRPS8oZRJBkThLq4Q9GXcG2X8ESg0Oqsv+ag1UelSp8lA6YfVk3Blk/xEoNTioLvurNVDpUabKw+hDtJUWJOPOIPtHXFGxjKx+oST774HdQIVBlSoPJRJWT4pGmwMwnjk66UYkLAZR9pJr52XP2io1y2AniSoWix4yO7u3kD0pGm0OwHgmcvXkbVblgWyi7SVb84KsrVKzDJbloYrFokcJlbAnRaPNARjPROjJ26zKA9lE20u25gVZW6VmGSzLQxWLRY8SCWuZ4C367FhElpU2BtsvYuNU2i89SqiE0W/ms56pEouaFK1S4aL3XKU5Y8VSYexblEhY0W/ms56pEouaFK1S4aIXi9KcsWKpMPZNRh+irbQd8m+EisZ45uhYVFWf0RUuerEovaTNXr8q1oXuXI8O4J9AkpMEemU0FUBj+TejrRlK+4VdcYKxfigzWBd6OGHtvDKbCqCxLIuONUNpv7AqTjDWD2UG60KPEiqhEplNBdBYWtOxZrBA9gur4kR0g4ojzGBd6OGEtZNlcjsEIxYGVawSaCyMeRH5qh+ihEqohIodIrvBgRro+ND1q2I9mcG60MMJaycqdojsBgdqoOND16+K9WQK60KP0YdoK03gQP2aa7QdIrvBwbVXNuj40PWrYj2ZwbrQo0TCQq0EyhaEiMoDe2CPvUdGY4uRa8tYv4yqEhWTWYmEhVoJKlgQjlQeQGCNvUdmY4sRa8tYv8yqEpUsDyVUQtRKUMGCcKTyAAJr7L1tlNnYYsTa9shuBpL9zGxKJKxFSIpGYYwBJbu6wOxri85Lj+yqEiJpYJPTqoSZMu+IBg6XGPFLyhifir0EGfeRe1n7Vmneepw2YWXK/iMaOFxiRDUKxvhU7CU9GA04WPYEpYYYXUYfoq008EAXvS9D9h/ZwOEhI1VCdHy9zxttL4lY9+w9sWc+VTltwnpIts2ATVRzjmvnhQEjmWSvn5I9ITvpMnDCekC2zYBFdHOOrXlhwEhY2eunZE9A5kvN8nBalfAS2TYDFtHNObbmhbGNGGpf9vop2RMYFS6yccJKemY2StUMsseAjo+B0v5UqiqBclqVEEXp1yaanmSOVjNgxYOSuX6MOTsSf3YzEAZOWDspI/8C9CRztJrBERjWk8z1Y8zZEdtGdjMQCqMP0VaayKH71jPLyL9BihBazSAChvUkY/0Ycxah1jKagWTjhLXzmejCZr8p34s5o3lF9rywy71kNPWIuGZHZoRVE9Z6sRocMMaQ2bwie17Qag1onGrX7Fgl3PnMS7AaHKAg1S96caJkzwtarQGNUw2RrzMNJ6ydz+yRHSc6BjROlNnXTwmRrzMNGZUQfTud8Vb7DPJv9HxWQa0pRCYzjGELmYSFvp3OeKt9Bvk3ej6roNYUIpMZxrDJ6EO0FfTtdMZb7Qz5tyUflEbNZ8SVMS9slTBqLhiXqgWBgUzCmh30izm6cUBE2ZaMebn2Qqs1MJ6JzvUeW8psycwJKwn0i6nSOOBIc4fMedm60GoNjGeic43YUtSqLqDIqISzg6phKo0DjjR3WAgqYXQ1ii1QmwjCkYohKvuFhRNWEkq2DcYYejDGl115YAZbygxfdRmV8Mz0fvmymxFEo9SAo7X8CgnZVN8vWzhhCdB7az+7GUE0Sg04WsuvkJBN9f2yyehDtLPQOoeovbf2MxpURIzh4cW2peyJ5dq5fohqPXvGfFZBJmE9ffp0uJ/l6NWdaMKXfY+0z+66ki21j17ra9ed0TACZQbLgxOWYMJaL0YFgSPydu+52VL76LW+dt0ZDSNQZrA8yKiEz549a1++fBkdxiGWYFWLUUHgiLwdXQGCFUs2C8GWwlD7ZrA8OGEFEp2wRjyzh5LUXiVhVZkzkTSwiVXCJFRkZUYVi+zmFVX+GmiNYzOIrkihsjevwQkrCZUqCIwqFtnNK85uM0AbaUxheRh9iLYy+6E7WgWhx57nMKpYZDeviHgRe/S6R6iEaCONGSwPJRLW/f396PCuinMPER6f3n1oBQFU+lZq0rBn7OxqFCjZP0ZVLA9OWIFxImy9md+jdx9aQQCVvpWaNCBjZ1WjQEHiOGJPqGJ5KKES3t/ft+fPn48OcTNOZCq33sxfQCUJrSCASt9KTRqQsbOqUaAwbDA9qlgefOg+mMiyJBHPvZR0tpKRSrJCx85ah0yOrAG67tk4YQ0Glf1Zv3ozNK/ItkpEr4XSXzRqOGENBpX9WdL+DM0rsq0SqM2AEcv0jD5EWznboTsq+7MrCCg1r0CvbKsEajNgxILCeCYDmWjQhMXY8GicPbJlfwZR0jfabEHVh6V0oThh7WT2hJUt+zOIlr7RZgtHLAizXyhVElZ5W0N2a3XU1pAt+zOWNVr6RpstHLEgzA667lVejPahexJq8nDkGNCxbVkJeuVqzDlxwpoQlsVA6W1/JRuFErNXcnDCmhDW2/dKb/sr2SiUmL6Sw+hDtJXZD90ZcT682C+sMt72R9dByUahdM1eycEJSyBhofL9nsYPqkkQXYeHRMwZ+kz0Gh2LalLq4YQlkLBQ+R5p/IBerLf2oxJWxJyhz0QvlVjUKjL0sK3hERaCrQGprIDK/q3F2yhYb+1Hy+lH5gx9JopKLGoVGXr40F0AVL7v/Xu0jaKKLePInEXew3ouI5Yqa9uaE5YEjIoMDDma8SucLaerNL1gNANReR4TJywBGBUZGLJ/dFWCXpwsOV2l6QWjGciIWNIZfYi2cuZDd0ZFBobsH1WVoBcn2yoxuukFoxnIyFiyccISSFiMOB+iVOlgpFUi+4qynlRMLgycsE6SsFaUKh2MsEpkX9HWk0oWBAa2NTzCkmxrYMR5CaVKByOsEtlEW08qWRAY+ND9ZChVOqgkp6NEW0/OMGc9nLCKgkrRSr/O2VUlZhmf0hpm44RVFFSKVmpwkF1VYpbxMewlZRh9iLbiQ3euwnYmlXB0JYdrx4c+n2EvqUL5hKUUZ4/eBtzz1v61oNUaGBUERleViEjWjDUa/cMx8kcFnrPRAaycOWEhb+1vgVZrYFQQUKkqccTSwVij0Unp6HyOoLytQSnOJbhawxHQag2MCgIqVSWOWDoYa6Rkv7iEmo3Ch+4CKL2Bz6ggoFJV4sg8K9lBMlGzUThhCaDyCzbCKqFiQRhBhbGrxeiEJYCKTD3CKqFiQRhBhbHLVXIYfYi2cuZDd4ZM3XYcrLKtEj0YFoSoebn2mSij7ReMPcGmRMKqcnUnOnmz9J6fYTNgfNkjEmT2GB7OJ/vHgdHQRAknLMGEtV5HJOXeczNtBoy/TrbsCdHrcGQMl+YTXVvUQsJozjGCEraGKizB1RqOSMqojSLaZrA1Lwhb9oTodTgyhkvzia4taiFhNOcYgRNWIEpfFLQbjUoZHLXxZa9D9thF0sAmVgmTQORhRqOCrWdWaXCQOb4R65A5djXrQg8nrCQQCZvRqGDrmVUaHGSOb8Q6ZI5dzrrQY/Qh2srsh+57JGxGo4Jrn1mlwUHG+EauQ8bYVa0LPWTOsIwxZgv/J6ExpgxOWMaYMjhhGWPK4IRljCmDE5YxpgxOWMaYMjhhGWPK4IRljCmDE5YxpgxOWMaYMjhhGWPK4IRljCmDE5YxpgxOWMaYMjhhGWPK4IRljCmDE5YxpgxOWMaYMjhhGWPK4IRljCmDE5YxpgxOWMaYMjhhGWPK4IRljCmDE5YxpgxOWMaYMjhhGWPK4IRljCmDE5YxpgxOWMaYMjhhGWPK4IRljCmDE5YxpgxOWMaYMvwv5EwisndljS0AAAAldEVYdGRhdGU6Y3JlYXRlADIwMjItMTEtMjVUMTQ6Mjg6NTQrMDA6MDCUjgEfAAAAJXRFWHRkYXRlOm1vZGlmeQAyMDIyLTExLTI1VDE0OjI4OjU0KzAwOjAw5dO5owAAAABJRU5ErkJggg==;clipPath=inset(9.67% 9.67% 9.33% 9.67%);" vertex="1" parent="1">
          <mxGeometry x="60.06" y="130" width="258.93" height="260" as="geometry" />
        </mxCell>
      </root>
    </mxGraphModel>
  </diagram>
</mxfile>
